Coordinates
version=1
nRows=19
nColumns=34
inDegrees=no

Units are S.I. units (second, meters, Newtons, ...)
If the header above contains a line with 'inDegrees', this indicates whether rotational values are in degrees (yes) or radians (no).

endheader
time	pelvis_tilt	pelvis_list	pelvis_rotation	pelvis_tx	pelvis_ty	pelvis_tz	hip_flexion_r	hip_adduction_r	hip_rotation_r	knee_angle_r	ankle_angle_r	subtalar_angle_r	mtp_angle_r	hip_flexion_l	hip_adduction_l	hip_rotation_l	knee_angle_l	ankle_angle_l	subtalar_angle_l	mtp_angle_l	lumbar_extension	lumbar_bending	lumbar_rotation	arm_flex_r	arm_add_r	arm_rot_r	elbow_flex_r	pro_sup_r	arm_flex_l	arm_add_l	arm_rot_l	elbow_flex_l	pro_sup_l
2.29	-0.0984752	-0.102767	-0.0796965	-0.155512	1.27043	-0.605408	0.107076	0.0169751	-0.367591	0.0116478	-0.790065	0.191175	-0.104508	0.164648	-0.227604	-0.476927	0.0577184	-0.705586	0.204431	-0.104508	-0.247943	0.132709	0.044912	1.12483	-0.606433	0.662318	1.83793	1.50053	1.18311	-0.840286	0.629557	2.01243	1.36445
2.3	-0.0973382	-0.101551	-0.0851269	-0.156805	1.27202	-0.605429	0.109865	0.0138296	-0.353003	0.0117623	-0.790071	0.187143	-0.1045	0.163623	-0.227304	-0.477225	0.060105	-0.705232	0.206341	-0.1045	-0.249181	0.134802	0.0536369	1.09464	-0.600648	0.655674	1.81614	1.51276	1.12816	-0.830465	0.607058	2.00389	1.37442
2.31	-0.0961531	-0.100443	-0.0905873	-0.157974	1.2726	-0.605425	0.111962	0.0109537	-0.341551	0.0116498	-0.788679	0.180207	-0.104491	0.161337	-0.227032	-0.481858	0.0606239	-0.704067	0.207097	-0.104491	-0.24997	0.136809	0.0629031	1.06477	-0.59546	0.649189	1.79299	1.52737	1.07383	-0.817312	0.584709	1.99367	1.38626
2.32	-0.0952079	-0.0993399	-0.0956027	-0.159031	1.27216	-0.605435	0.113697	0.00817472	-0.333916	0.0112806	-0.786345	0.170619	-0.104483	0.158433	-0.226612	-0.489876	0.0595154	-0.702174	0.206977	-0.104483	-0.249964	0.13874	0.0719995	1.03504	-0.590785	0.642692	1.76886	1.54336	1.0203	-0.801542	0.562767	1.98235	1.39934
2.33	-0.094752	-0.0981227	-0.0998491	-0.159996	1.27068	-0.605486	0.115449	0.00529418	-0.329973	0.0106949	-0.783502	0.159068	-0.104475	0.155609	-0.225966	-0.499716	0.0574493	-0.69975	0.20641	-0.104474	-0.248913	0.140576	0.0802919	1.00545	-0.586432	0.636186	1.74398	1.55961	0.967732	-0.783955	0.541466	1.97037	1.41287
2.34	-0.0949265	-0.0966901	-0.10317	-0.160896	1.26812	-0.6056	0.117563	0.00213626	-0.328883	0.0100014	-0.78041	0.146544	-0.104466	0.153444	-0.22512	-0.509569	0.0553105	-0.697063	0.20601	-0.104466	-0.246749	0.142278	0.0873202	0.976135	-0.582149	0.629786	1.7185	1.57533	0.916295	-0.765322	0.52098	1.95803	1.42622
2.35	-0.09571	-0.0949988	-0.10556	-0.161746	1.26448	-0.605774	0.12028	-0.00141248	-0.329345	0.0093724	-0.777065	0.134206	-0.104458	0.1523	-0.224179	-0.517715	0.0539762	-0.694385	0.206523	-0.104458	-0.243608	0.143806	0.092836	0.947306	-0.577695	0.623647	1.69249	1.59011	0.866184	-0.746303	0.501445	1.94544	1.43897
2.36	-0.0969291	-0.0930844	-0.107114	-0.16257	1.25979	-0.605984	0.123651	-0.00536545	-0.329896	0.00903977	-0.773171	0.123233	-0.10445	0.1523	-0.223286	-0.522764	0.0541427	-0.69191	0.208684	-0.104449	-0.239785	0.145123	0.0967918	0.919207	-0.572896	0.617888	1.66601	1.6038	0.817636	-0.72739	0.482983	1.93258	1.45092
2.37	-0.0983207	-0.0910314	-0.107959	-0.163397	1.25405	-0.606209	0.127531	-0.00963267	-0.329202	0.00928626	-0.768155	0.114683	-0.104441	0.153345	-0.222593	-0.523787	0.0562345	-0.68967	0.213039	-0.104441	-0.2357	0.146218	0.0993018	0.89204	-0.567675	0.612532	1.63918	1.61627	0.770944	-0.708895	0.46573	1.91935	1.46193
2.38	-0.0995789	-0.0889533	-0.108203	-0.164247	1.24729	-0.606431	0.131629	-0.014055	-0.326265	0.0104261	-0.761236	0.10936	-0.104433	0.15518	-0.222237	-0.52034	0.0603978	-0.687471	0.219786	-0.104432	-0.231825	0.147109	0.10057	0.865948	-0.562049	0.607495	1.61222	1.62729	0.726431	-0.690985	0.449831	1.90564	1.47185
2.39	-0.100398	-0.0869606	-0.107914	-0.165133	1.23956	-0.606635	0.135592	-0.0184605	-0.320583	0.012776	-0.751666	0.107677	-0.104424	0.157466	-0.222318	-0.512535	0.0665364	-0.68495	0.228721	-0.104424	-0.22862	0.147835	0.100821	0.841021	-0.556081	0.602615	1.58538	1.63662	0.684393	-0.673742	0.435396	1.89133	1.48062
2.4	-0.100503	-0.0851407	-0.107122	-0.166062	1.23085	-0.606808	0.139089	-0.0227185	-0.312182	0.0166223	-0.738958	0.109579	-0.104416	0.159853	-0.222878	-0.500946	0.0743909	-0.681661	0.239204	-0.104416	-0.226466	0.148432	0.100241	0.817323	-0.54984	0.597711	1.55889	1.644	0.645045	-0.657214	0.42245	1.87637	1.48823
2.41	-0.0996959	-0.0835509	-0.105838	-0.16704	1.2212	-0.606947	0.141904	-0.0267763	-0.301502	0.0221991	-0.723081	0.1145	-0.104408	0.162078	-0.223902	-0.48641	0.0836431	-0.677157	0.250171	-0.104407	-0.225605	0.148921	0.0989491	0.794912	-0.543366	0.592626	1.53296	1.64929	0.608478	-0.641457	0.410898	1.86076	1.49474
2.42	-0.0979008	-0.0821994	-0.104065	-0.168075	1.2106	-0.607051	0.143994	-0.0306718	-0.289232	0.0297074	-0.704562	0.12141	-0.104399	0.164026	-0.225311	-0.469782	0.094017	-0.671067	0.260231	-0.104399	-0.226117	0.149294	0.0969931	0.773846	-0.536676	0.587231	1.50769	1.65264	0.574675	-0.626535	0.400529	1.84451	1.50033
2.43	-0.0951754	-0.0810261	-0.101808	-0.169174	1.19905	-0.607125	0.14551	-0.0345259	-0.276153	0.0393562	-0.684475	0.128949	-0.104391	0.165763	-0.226984	-0.451735	0.105357	-0.66314	0.267847	-0.104391	-0.22793	0.149516	0.0943896	0.754173	-0.529794	0.581392	1.48315	1.65451	0.543577	-0.612514	0.391095	1.82767	1.50522
2.44	-0.091672	-0.079917	-0.099065	-0.170349	1.18655	-0.607171	0.146778	-0.0385196	-0.262996	0.0514044	-0.664297	0.135616	-0.104383	0.167521	-0.228766	-0.432629	0.117674	-0.653229	0.271565	-0.104382	-0.230864	0.149521	0.0911746	0.735916	-0.522808	0.57493	1.45942	1.65559	0.515195	-0.599442	0.38242	1.81026	1.50964
2.45	-0.087586	-0.078738	-0.095836	-0.171627	1.17306	-0.607194	0.148239	-0.0428548	-0.25036	0.0661854	-0.645632	0.139999	-0.104375	0.169653	-0.230488	-0.412479	0.131164	-0.641214	0.270242	-0.104374	-0.234689	0.149218	0.0874509	0.719064	-0.515909	0.567598	1.43662	1.65674	0.489693	-0.587338	0.374498	1.79227	1.5137
2.46	-0.0831247	-0.0773638	-0.0921277	-0.173038	1.15857	-0.60721	0.150396	-0.0477071	-0.23865	0.0841108	-0.629824	0.140986	-0.104366	0.172578	-0.231993	-0.391009	0.146199	-0.62686	0.263232	-0.104366	-0.239175	0.148516	0.0834003	0.703595	-0.509385	0.559125	1.41499	1.6587	0.467413	-0.576215	0.367514	1.77374	1.51742
2.47	-0.0785116	-0.0756916	-0.0879644	-0.174599	1.14306	-0.607238	0.153773	-0.0531902	-0.228068	0.105667	-0.617445	0.137984	-0.104358	0.176774	-0.233145	-0.367752	0.163316	-0.609618	0.250487	-0.104357	-0.244095	0.147358	0.079242	0.689539	-0.503576	0.549328	1.39483	1.66191	0.448796	-0.566115	0.361761	1.75474	1.52072
